<?xml version="1.0" standalone="no"?>
<!DOCTYPE svg PUBLIC "-//W3C//DTD SVG 20010904//EN"
 "http://www.w3.org/TR/2001/REC-SVG-20010904/DTD/svg10.dtd">
<svg version="1.0" xmlns="http://www.w3.org/2000/svg"
 width="512.000000pt" height="512.000000pt" viewBox="0 0 512.000000 512.000000"
 preserveAspectRatio="xMidYMid meet">

<g transform="translate(0.000000,512.000000) scale(0.100000,-0.100000)"
fill="current" stroke="current">
<path d="M3687 5104 c-99 -30 -167 -135 -167 -253 0 -95 63 -272 137 -384 l18
-27 -91 -91 -92 -91 -22 58 c-12 33 -24 86 -27 119 -4 50 -2 64 15 85 l20 25
-36 67 c-20 38 -41 68 -46 68 -5 0 -26 -18 -47 -40 -88 -92 -90 -245 -8 -430
l32 -72 -299 -299 -299 -299 -110 -46 c-350 -146 -747 -337 -945 -455 l-104
-62 -226 12 c-258 14 -525 35 -720 57 -210 23 -420 60 -420 74 0 18 339 70
615 94 315 28 822 56 1028 56 l107 0 0 82 0 81 -247 -7 c-867 -24 -1460 -94
-1663 -196 -88 -44 -90 -50 -90 -222 l0 -148 79 -159 c76 -151 80 -162 90
-257 59 -541 241 -1075 500 -1466 225 -341 488 -577 832 -747 214 -106 440
-172 724 -213 120 -17 551 -17 675 1 604 83 1070 339 1423 781 323 404 546
979 623 1605 l17 140 78 157 79 158 0 151 0 151 -32 32 c-72 71 -284 123 -674
165 -211 23 -581 51 -674 51 l-60 0 0 -78 0 -78 213 -13 c240 -14 468 -34 637
-56 159 -21 340 -56 340 -65 0 -8 -21 -13 -145 -36 -197 -35 -490 -64 -885
-89 -304 -18 -670 -30 -670 -22 0 4 11 32 25 64 23 52 104 136 794 828 858
859 806 799 806 945 0 91 -33 168 -97 225 -65 59 -120 80 -213 80 -99 0 -152
-22 -228 -94 l-54 -51 -116 59 c-169 86 -290 109 -400 75z m194 -160 c45 -14
183 -76 199 -91 7 -7 -283 -292 -292 -287 -14 9 -75 136 -92 193 -25 86 -22
137 13 172 35 35 86 38 172 13z m662 2 c43 -18 85 -68 93 -112 16 -87 33 -69
-664 -766 -356 -357 -651 -648 -657 -648 -13 0 -215 202 -215 215 0 6 81 91
180 190 l179 179 21 -27 21 -26 59 46 c33 25 60 49 60 53 0 4 -9 19 -20 33
-11 14 -20 29 -20 34 0 19 806 813 840 827 44 19 82 20 123 2z m-1448 -1536
l110 -110 -28 -27 -27 -28 -112 112 -112 112 24 26 c13 14 26 25 29 25 4 0 56
-49 116 -110z m-475 -131 c-168 -96 -382 -224 -453 -271 -62 -42 -65 -43 -172
-39 l-70 2 101 52 c198 102 680 324 709 326 6 1 -46 -31 -115 -70z m-6 -230
l-90 -90 -62 3 -62 3 147 87 c82 48 150 87 153 88 3 0 -36 -41 -86 -91z m395
-43 c-11 -26 -23 -45 -26 -42 -3 3 5 26 18 50 30 58 35 53 8 -8z m-206 -16
c-9 -16 -24 -30 -32 -30 -10 0 -5 10 14 30 16 17 30 30 32 30 2 0 -4 -13 -14
-30z m-2551 -40 c259 -61 820 -113 1488 -137 330 -12 1492 -9 1790 5 626 29
1103 76 1338 132 46 11 85 20 88 20 2 0 4 -16 4 -35 0 -24 -23 -81 -69 -173
l-69 -138 -119 -22 c-165 -31 -415 -58 -708 -77 -137 -8 -283 -18 -322 -21
l-73 -6 0 -80 0 -80 88 6 c48 4 164 11 257 16 235 14 555 46 708 71 71 11 131
19 133 16 16 -16 -51 -376 -107 -575 -175 -623 -484 -1090 -908 -1374 -248
-165 -511 -263 -851 -315 -164 -25 -558 -25 -725 1 -570 87 -1003 340 -1323
774 -266 361 -450 839 -527 1370 -9 63 -15 116 -12 119 3 2 63 -4 134 -16 158
-25 270 -37 481 -55 89 -7 164 -15 166 -17 2 -2 6 -52 9 -110 l5 -106 -137
-12 c-230 -20 -455 -52 -478 -67 -37 -23 -38 -58 -9 -162 110 -390 325 -761
601 -1037 539 -539 1270 -743 1990 -556 420 110 827 384 1084 731 92 123 91
111 15 160 -35 24 -66 41 -67 39 -2 -2 -36 -47 -75 -100 -258 -348 -646 -598
-1073 -693 -291 -64 -604 -59 -879 15 -487 131 -916 460 -1196 919 -112 184
-262 544 -231 555 6 2 104 13 217 25 548 54 826 54 1225 -1 181 -25 321 -53
606 -124 539 -135 1078 -244 1429 -290 68 -9 126 -18 128 -20 2 -1 -10 -30
-27 -63 -23 -46 -27 -62 -18 -70 17 -13 114 -62 125 -62 16 0 122 239 122 276
0 14 -10 35 -22 47 -20 20 -41 25 -148 35 -331 34 -842 131 -1415 269 -104 25
-191 46 -193 48 -1 1 21 42 49 90 28 49 66 119 85 157 l34 68 88 0 c48 0 104
3 125 6 l38 7 -3 74 -3 75 -460 -1 c-981 -3 -1850 45 -2265 125 l-92 18 -69
138 c-46 92 -69 149 -69 173 0 19 2 35 4 35 3 0 42 -9 88 -20z m1089 -694
c-52 -106 -58 -104 -60 22 l-1 72 54 0 54 0 -47 -94z m464 74 l90 0 -85 -85
-85 -85 -128 0 -129 0 27 48 c15 26 42 66 59 90 l31 43 65 -5 c36 -3 105 -6
155 -6z m565 -29 c-8 -16 -115 -156 -140 -184 -4 -5 -71 -1 -149 9 l-142 17
88 89 88 88 133 0 c128 0 132 -1 122 -19z m295 -31 c-51 -101 -126 -220 -139
-220 -7 0 -38 5 -68 11 l-55 11 90 124 90 124 54 0 53 0 -25 -50z"/>
<path d="M3280 2410 l0 -80 80 0 80 0 0 80 0 80 -80 0 -80 0 0 -80z"/>
<path d="M4659 4319 l-65 -30 23 -67 c25 -73 29 -138 12 -175 -29 -64 -137
-62 -282 5 -37 17 -69 29 -71 27 -2 -2 -19 -34 -40 -70 l-36 -66 78 -36 c152
-72 308 -85 396 -33 92 54 132 139 123 261 -5 73 -45 206 -62 211 -6 2 -40
-11 -76 -27z"/>
<path d="M4505 3765 c-5 -2 -31 -6 -56 -10 l-47 -6 -4 -51 c-12 -125 -131
-131 -345 -18 l-91 49 -41 -63 c-23 -34 -41 -65 -41 -69 0 -15 143 -89 225
-116 182 -60 296 -50 380 34 50 49 75 115 75 197 0 54 -2 58 -22 57 -13 0 -27
-2 -33 -4z"/>
</g>
</svg>
