<?xml version="1.0" standalone="no"?>
<!DOCTYPE svg PUBLIC "-//W3C//DTD SVG 20010904//EN"
 "http://www.w3.org/TR/2001/REC-SVG-20010904/DTD/svg10.dtd">
<svg version="1.0" xmlns="http://www.w3.org/2000/svg"
 width="512.000000pt" height="512.000000pt" viewBox="0 0 512.000000 512.000000"
 preserveAspectRatio="xMidYMid meet">

<g transform="translate(0.000000,512.000000) scale(0.100000,-0.100000)"
fill="current" stroke="current">
<path d="M2415 5024 c-256 -55 -466 -267 -519 -526 -23 -112 -21 -154 9 -183
24 -24 28 -25 183 -25 194 0 200 3 213 99 22 158 126 248 275 239 88 -6 150
-40 195 -107 58 -88 63 -180 13 -271 -45 -84 -111 -123 -227 -135 -82 -8 -150
-49 -181 -110 -20 -38 -21 -58 -24 -438 l-3 -397 25 -25 c25 -25 28 -25 184
-25 226 0 206 -32 212 325 l5 287 40 17 c151 60 278 178 350 324 72 145 90
276 59 425 -76 368 -439 604 -809 526z m320 -175 c220 -81 361 -298 341 -521
-19 -210 -159 -380 -369 -448 -39 -12 -73 -31 -82 -43 -12 -18 -15 -67 -15
-289 l0 -268 -50 0 -50 0 0 324 c0 271 2 326 15 336 8 6 47 16 87 21 234 29
399 244 360 470 -16 94 -58 173 -126 237 -78 74 -149 104 -257 110 -140 7
-248 -35 -338 -133 -41 -44 -83 -119 -95 -167 -6 -26 -10 -28 -56 -28 -58 0
-59 2 -31 83 26 75 77 152 140 210 55 52 169 112 242 127 72 15 216 5 284 -21z"/>
<path d="M433 4183 c-66 -86 -118 -134 -180 -165 -106 -52 -121 -98 -51 -157
86 -73 138 -132 164 -183 38 -76 51 -88 95 -88 35 0 42 5 77 53 54 72 115 125
178 153 29 13 60 35 69 48 22 33 12 81 -22 104 -69 46 -142 126 -172 187 -35
70 -53 85 -100 85 -23 0 -37 -9 -58 -37z m85 -326 l-50 -39 -15 22 c-8 11 -25
33 -38 47 l-22 27 46 37 46 37 41 -46 41 -46 -49 -39z"/>
<path d="M4648 4144 c-16 -8 -28 -19 -28 -24 0 -22 -125 -101 -189 -120 -77
-24 -84 -28 -100 -57 -20 -39 -12 -62 44 -122 58 -64 96 -130 115 -201 16 -60
35 -80 77 -80 28 0 47 11 94 53 61 56 139 100 199 112 50 10 80 41 80 82 0 26
-11 45 -54 92 -62 67 -87 111 -111 194 -24 82 -65 105 -127 71z m39 -269 c29
-50 30 -55 13 -60 -10 -3 -34 -17 -54 -30 l-35 -24 -27 49 c-14 27 -27 51 -28
55 -1 6 83 63 94 64 3 0 19 -24 37 -54z"/>
<path d="M4210 3739 c-161 -33 -286 -87 -436 -187 -147 -99 -298 -261 -374
-404 l-31 -57 70 -35 69 -35 55 87 c163 256 401 415 730 487 28 6 28 6 21 62
-4 32 -10 67 -13 79 l-6 21 -85 -18z"/>
<path d="M846 3728 c-7 -21 -26 -118 -26 -132 0 -8 33 -22 83 -35 231 -61 463
-225 598 -423 42 -61 129 -233 129 -254 0 -7 4 -16 10 -19 11 -7 150 33 150
43 0 17 -46 124 -83 197 -153 293 -449 531 -762 611 -33 8 -68 17 -78 20 -9 3
-19 -1 -21 -8z"/>
<path d="M2480 3027 c-49 -16 -133 -102 -148 -153 -28 -94 -8 -169 63 -239
102 -103 243 -101 338 5 93 103 90 228 -8 325 -70 71 -152 91 -245 62z m135
-172 c16 -15 25 -36 25 -55 0 -19 -9 -40 -25 -55 -49 -50 -135 -15 -135 55 0
41 39 80 80 80 19 0 40 -9 55 -25z"/>
<path d="M1481 2655 l-484 -103 -258 -259 c-233 -232 -259 -262 -259 -291 0
-58 27 -73 223 -121 l177 -43 0 -613 c0 -569 1 -614 18 -634 13 -16 209 -79
840 -268 l823 -246 817 244 c608 182 823 250 840 266 l22 22 0 614 0 615 178
43 c195 48 222 63 222 121 0 29 -27 59 -257 290 -201 201 -266 261 -293 268
-19 5 -80 18 -135 29 -55 11 -259 54 -454 95 -195 42 -357 73 -362 71 -8 -6
-34 -143 -28 -149 2 -3 129 -31 282 -63 152 -32 277 -60 277 -63 0 -7 -1119
-242 -1128 -236 -4 2 -248 54 -542 116 -294 62 -538 115 -542 119 -4 3 117 32
270 64 152 32 278 60 281 63 8 8 -23 147 -34 150 -5 1 -228 -44 -494 -101z
m266 -405 c367 -78 669 -142 671 -144 2 -2 -63 -97 -144 -210 -105 -147 -152
-205 -163 -201 -9 2 -326 82 -704 176 l-689 172 173 173 c96 96 177 174 181
174 4 0 308 -63 675 -140z m2482 -34 l173 -173 -689 -172 c-378 -94 -695 -174
-704 -176 -11 -4 -58 54 -163 201 -81 113 -146 208 -144 209 4 4 1318 283
1338 284 8 1 93 -77 189 -173z m-1752 -1943 c-3 -2 -954 280 -1339 398 l-98
30 0 548 0 549 560 -140 c355 -89 568 -138 584 -134 17 4 63 60 158 193 l133
188 3 -814 c1 -448 1 -816 -1 -818z m303 1442 c93 -131 139 -187 156 -191 16
-4 229 45 584 134 l560 140 0 -548 0 -548 -62 -21 c-85 -27 -1366 -411 -1373
-411 -3 0 -5 367 -5 815 0 448 2 815 4 815 2 0 64 -83 136 -185z"/>
</g>
</svg>
